<svg xmlns="http://www.w3.org/2000/svg" width="390" height="340.903" viewBox="0 0 390 340.903">
  <g fill="#010101">
    <path d="M224.42 13.75l8.044 11.492h-31.03V2.257h31.03"/>
    <path d="M232.464 107.988h-12.642V68.914h12.642v39.074zm-17.24 0h-12.64V68.914h12.64v39.074zm-14.94 26.433h-4.596v-17.23h4.597v17.24zm-10.342 0h-4.597v-17.23h4.597v17.24zm-4.597-65.5h11.493V108h-11.493V68.92zm-4.597 65.51h-4.597v-17.24h4.6v17.24zm-9.194 0h-4.597v-17.24h4.597v17.24zm-4.597-65.5H179.6V108h-12.643V68.92zm31.03-25.28v20.68h-27.582c1.15-5.74 8.044-19.53 27.582-20.68m-35.627 90.79h-4.597V117.2h4.597v17.24zm-9.194 0h-4.597V117.2h4.59v17.24zm108.03-20.68c0-2.3-2.3-4.59-4.6-4.59H238.21V64.32s-1.15-6.897-6.896-13.79c-4.597-6.898-13.79-12.644-28.73-13.793V2.257h-4.598v34.478c-13.79 1.15-22.985 6.896-27.582 13.79-5.746 6.897-6.896 13.792-6.896 13.792v43.67H146.27c-2.298 0-4.597 2.3-4.597 4.598v24.134c0 2.29 2.3 4.59 4.597 4.59h16.09l-10.344 91.94h9.194l10.343-91.94h28.73v21.83H189.94v16.09h10.345v17.24H189.94v16.09h10.344v19.54h50.566l-11.492-91.94h16.09c2.3 0 4.597-2.3 4.597-4.6l1.15-21.84z"/>
  </g>
  <path d="M34.868 282.7l.066.222c.09 5.616-1.225 9.884-3.94 12.803-2.718 2.92-6.56 4.38-11.523 4.38-5.09 0-9.15-1.764-12.17-5.29s-4.52-8.43-4.52-14.713v-13.36c0-6.258 1.47-11.17 4.39-14.73 2.93-3.564 6.85-5.345 11.78-5.345 5.19 0 9.19 1.454 11.99 4.36 2.81 2.907 4.17 7.18 4.08 12.82l-.06.224h-8.92c0-3.38-.55-5.82-1.67-7.29-1.11-1.47-2.91-2.21-5.41-2.21-2.29 0-4.02 1.03-5.19 3.08-1.17 2.06-1.75 5.06-1.75 9.02v13.44c0 3.99.63 7 1.89 9.06 1.26 2.06 3.13 3.08 5.6 3.08 2.29 0 3.95-.73 4.96-2.19 1.01-1.46 1.52-3.91 1.52-7.34h8.91zm40.937-3.118c0 6.31-1.58 11.306-4.742 14.992-3.162 3.687-7.36 5.53-12.59 5.53-5.234 0-9.436-1.844-12.61-5.53-3.172-3.686-4.758-8.684-4.758-14.992v-12.32c0-6.284 1.575-11.287 4.726-15.01 3.15-3.724 7.35-5.586 12.58-5.586s9.44 1.862 12.63 5.585c3.19 3.73 4.78 8.73 4.78 15.02v12.32zm-9.185-12.395c0-4.032-.713-7.137-2.137-9.314-1.425-2.177-3.452-3.266-6.08-3.266-2.65 0-4.653 1.09-6.01 3.266-1.36 2.177-2.038 5.282-2.038 9.314v12.395c0 4.058.69 7.175 2.07 9.352 1.38 2.177 3.396 3.266 6.045 3.266 2.627 0 4.642-1.088 6.045-3.266 1.403-2.177 2.104-5.294 2.104-9.352v-12.395zm25.773 11.355v20.818h-9.185v-51.916h14.328c4.72 0 8.438 1.35 11.155 4.045 2.72 2.69 4.08 6.44 4.08 11.24 0 2.67-.57 4.99-1.7 6.96-1.13 1.96-2.79 3.54-4.97 4.73 2.5.86 4.29 2.35 5.4 4.47s1.66 4.73 1.66 7.85v3.78c0 1.46.16 2.98.47 4.58.31 1.59.85 2.76 1.61 3.51v.74h-9.52c-.78-.74-1.27-1.98-1.48-3.71-.21-1.73-.32-3.47-.32-5.2v-3.64c0-2.62-.5-4.66-1.52-6.11-1.01-1.45-2.46-2.17-4.36-2.17H92.4zm0-7.904h5.11c1.98 0 3.484-.643 4.51-1.93 1.023-1.286 1.535-3.117 1.535-5.492 0-2.424-.512-4.348-1.536-5.77-1.024-1.423-2.517-2.135-4.476-2.135h-5.143v15.33zm51.92 17.516H132.39l-2.704 11.207h-9.652l13.56-51.95h9.585l13.49 51.96h-9.65l-2.71-11.2zm-10.02-7.98h8.084l-3.94-16.364h-.202l-3.94 16.365zm37.257 11.32h17.802v7.867h-27.02v-51.95h9.22v44.09zm60.9-5.604h.2l8.952-38.482h12.023v51.953h-9.118v-32.91l-.2-.03-8.684 32.96h-6.146l-8.583-32.65-.2.04v32.62h-9.15v-51.96h11.99l8.917 38.49zm53.244-9.463H271.1v15.066h17.467v7.867H261.88v-51.953h26.62v7.904h-17.4v13.25h14.595v7.87zm9.58 22.933v-51.95h14.695c4.98 0 9.1 2.03 12.34 6.086 3.24 4.058 4.85 9.265 4.85 15.623v8.61c0 6.35-1.62 11.55-4.86 15.58-3.24 4.03-7.36 6.05-12.34 6.05h-14.69zm9.216-44.048v36.182h5.48c2.403 0 4.34-1.28 5.81-3.84 1.47-2.562 2.205-5.87 2.205-9.928v-8.684c0-4.032-.735-7.33-2.205-9.89-1.47-2.56-3.406-3.84-5.81-3.84h-5.48zm39.457 44.048h-9.252v-51.95h9.252v51.953zm30.358-11.206H362.38l-2.704 11.207h-9.652l13.56-51.95h9.587l13.5 51.96h-9.65l-2.7-11.2zm-10.02-7.98h8.082l-3.94-16.364h-.2l-3.942 16.365z" fill="#010101"/>
  <path fill="none" d="M-63.238-108.11h591v551h-591z"/>
  <path d="M46.437 332.436h.09l2.196-14.775h4.23l-4.23 23.25h-3.945l-3.003-13.81h-.09l-2.973 13.82h-3.96l-4.198-23.24h4.23l2.18 14.73h.09l3.063-14.72h3.257l3.063 14.78zm19.493-1.793H59.4v6.74h7.815v3.52H55.278V317.66h11.908v3.537H59.4v5.927h6.53v3.52zm4.017 10.26V317.66h6.11c2.222 0 3.956.532 5.2 1.595s1.87 2.646 1.87 4.748c0 1.096-.225 2.07-.673 2.922-.448.853-1.12 1.494-2.017 1.926 1.195.28 2.08.9 2.652 1.87.57.97.85 2.11.85 3.43 0 2.23-.6 3.91-1.78 5.05-1.19 1.14-2.88 1.71-5.07 1.71h-7.15zm4.123-13.414h2.197c.886-.03 1.563-.3 2.032-.82.46-.52.7-1.28.7-2.28 0-1.1-.25-1.91-.74-2.43-.5-.52-1.23-.78-2.21-.78h-1.98v6.29zm0 3.12v6.77h3.033c.906 0 1.59-.27 2.047-.82.458-.55.688-1.36.688-2.44 0-1.11-.21-1.96-.627-2.57-.41-.61-1.07-.92-1.97-.96h-3.17zm16.713 10.29h-4.08v-4.04h4.08v4.03zm20.17-6.03h.09l4.004-17.22h5.38v23.24h-4.08v-14.72l-.09-.02-3.885 14.74h-2.75l-3.84-14.61-.09.02v14.6H101.6v-23.24h5.364l3.99 17.21zm27.987-2.82c0 2.82-.708 5.06-2.122 6.7-1.415 1.65-3.292 2.47-5.633 2.47s-4.22-.83-5.64-2.48-2.13-3.89-2.13-6.71v-5.51c0-2.81.706-5.05 2.115-6.72 1.41-1.67 3.285-2.5 5.625-2.5s4.223.83 5.648 2.5c1.424 1.66 2.137 3.9 2.137 6.71v5.51zm-4.108-5.55c0-1.81-.32-3.2-.957-4.17-.638-.98-1.544-1.46-2.72-1.46-1.185 0-2.08.48-2.688 1.46-.608.97-.912 2.36-.912 4.17v5.54c0 1.81.31 3.21.927 4.18.617.97 1.52 1.46 2.704 1.46 1.175 0 2.077-.49 2.705-1.46.63-.98.95-2.37.95-4.19v-5.54zm7.148 14.39v-23.24h6.11c2.222 0 3.956.53 5.2 1.59s1.87 2.64 1.87 4.75c0 1.09-.225 2.07-.673 2.92-.448.85-1.12 1.49-2.017 1.92 1.195.28 2.08.9 2.652 1.87.573.97.86 2.11.86 3.43 0 2.22-.594 3.9-1.78 5.04-1.185 1.14-2.873 1.71-5.064 1.71h-7.158zm4.124-13.42h2.197c.89-.03 1.57-.3 2.04-.82s.7-1.28.7-2.28c0-1.1-.24-1.91-.74-2.43-.49-.52-1.22-.78-2.2-.78h-1.98v6.29zm0 3.12v6.77h3.033c.906 0 1.59-.27 2.047-.82.458-.55.688-1.36.688-2.44 0-1.11-.21-1.96-.627-2.57-.418-.61-1.076-.92-1.972-.96h-3.17zm16.86 10.29h-4.14v-23.24h4.14v23.25zm7.67-3.52h7.964v3.52H166.51v-23.24h4.124v19.72zm21.226-6.74h-6.53v6.74h7.814v3.52h-11.938v-23.24h11.908v3.53h-7.785v5.92h6.53v3.52zm8.567 10.26h-4.08v-4.04h4.08v4.03zm20.17-6.03h.09l4.004-17.22h5.38v23.25h-4.08v-14.72l-.09-.02-3.88 14.74h-2.75l-3.84-14.61-.09.01v14.6h-4.09v-23.24h5.37l3.99 17.22zm22.63 1.01h-5.333l-1.21 5.01h-4.318l6.066-23.25h4.288l6.037 23.24h-4.318l-1.22-5.02zm-4.482-3.57h3.616l-1.76-7.3h-.09l-1.76 7.32zm16.355-.73v9.31h-4.11v-23.22h6.41c2.112 0 3.776.6 4.99 1.81 1.216 1.2 1.824 2.88 1.824 5.03 0 1.19-.254 2.23-.762 3.11-.508.88-1.25 1.58-2.227 2.11 1.116.39 1.92 1.05 2.413 2s.74 2.11.74 3.51v1.69c0 .65.07 1.33.21 2.05s.377 1.23.716 1.57v.33h-4.258c-.35-.33-.57-.89-.665-1.66-.09-.78-.14-1.55-.14-2.33v-1.63c0-1.18-.22-2.09-.68-2.73-.45-.65-1.1-.98-1.95-.98h-2.51zm0-3.54h2.286c.887 0 1.56-.29 2.017-.87.458-.58.688-1.4.688-2.46 0-1.09-.22-1.95-.68-2.59-.46-.63-1.12-.95-2-.95h-2.3V328zm18.208 3.17h-1.375v9.68h-4.124v-23.24h4.12v9.58h1.1l4.16-9.58h5.12l-5.83 10.61 6.27 12.63h-5.26l-4.21-9.68zm22.376-.58h-6.53v6.74h7.814v3.52H285.03v-23.24h11.908v3.53h-7.785v5.92h6.53v3.52zm17.428-9.45h-5.035v19.71h-4.124v-19.7h-4.916v-3.54h14.075v3.54zm6.632 19.7h-4.14v-23.24h4.14v23.25zm18.666 0h-4.124L327.503 326l-.09.02v14.88h-4.124v-23.24h4.12l6.78 14.876.09-.017v-14.86h4.12v23.24zm17.79-3.17c-.617.95-1.5 1.77-2.65 2.46s-2.634 1.04-4.446 1.04c-2.29 0-4.137-.78-5.535-2.35-1.4-1.57-2.1-3.74-2.1-6.53v-6.14c0-2.77.68-4.94 2.04-6.52s3.15-2.37 5.36-2.37c2.31 0 4.06.63 5.25 1.9 1.19 1.27 1.76 3.01 1.72 5.24l-.03.1h-3.89c0-1.23-.25-2.16-.75-2.78-.5-.62-1.23-.93-2.2-.93-1.06 0-1.89.454-2.49 1.37-.61.91-.91 2.225-.91 3.94v6.173c0 1.75.3 3.08.91 4 .6.913 1.47 1.37 2.58 1.37.79 0 1.42-.116 1.87-.35s.81-.53 1.08-.895v-4.583h-3.26v-3.106h7.4v8.947z" fill="#010101"/>
  <path fill="none" d="M-50.06-110.48h537v558h-537z"/>
</svg>
