<svg xmlns="http://www.w3.org/2000/svg" width="408" height="340.645" viewBox="0 0 408 340.645">
  <g fill="#010101">
    <path d="M235.42 11.493l8.043 11.492h-31.028V0h31.028"/>
    <path d="M243.463 105.73h-12.64V66.658h12.64v39.074zm-17.238 0h-12.642V66.658h12.642v39.074zm-14.94 26.434h-4.597v-17.24h4.597v17.24zm-10.343 0h-4.597v-17.24h4.597v17.24zm-4.597-65.507h11.493v39.074h-11.493V66.66zm-4.597 65.507h-4.597v-17.24h4.6v17.24zm-9.194 0h-4.597v-17.24h4.597v17.24zm-4.597-65.507H190.6v39.074h-12.643V66.66zm31.03-25.284V62.06h-27.582c1.15-5.747 8.044-19.538 27.582-20.687m-35.627 90.79h-4.597v-17.238h4.597v17.24zm-9.194 0h-4.597v-17.238h4.59v17.24zm108.03-20.686c0-2.298-2.3-4.597-4.598-4.597H249.21V62.06s-1.15-6.896-6.896-13.792c-4.598-6.896-13.79-12.642-28.73-13.79V0h-4.598v34.478c-13.79 1.15-22.985 6.896-27.582 13.79-5.746 6.897-6.896 13.792-6.896 13.792v43.672H157.27c-2.298 0-4.597 2.298-4.597 4.597v24.13c0 2.3 2.3 4.59 4.597 4.59h16.09L163.016 231h9.194l10.344-91.94h28.73v21.836h-10.342v16.09h10.343v17.238h-10.343v16.09h10.343v19.537h50.567l-11.492-91.94h16.09c2.3 0 4.596-2.29 4.596-4.59l1.15-21.83z"/>
  </g>
  <path d="M14.224 277.746h-2.75v19.357H3.23V250.62h8.248v19.157h2.21l8.338-19.158h10.25L20.62 271.83l12.55 25.27H22.65l-8.426-19.357zm51 1.66c0 5.645-1.414 10.116-4.242 13.414-2.83 3.298-6.584 4.947-11.266 4.947s-8.442-1.65-11.28-4.947c-2.84-3.298-4.26-7.77-4.26-13.414v-11.023c0-5.622 1.41-10.1 4.23-13.43 2.82-3.332 6.57-4.998 11.25-4.998 4.682 0 8.448 1.666 11.297 4.997 2.85 3.332 4.273 7.81 4.273 13.43v11.024zm-8.217-11.09c0-3.608-.638-6.386-1.913-8.334-1.275-1.948-3.088-2.922-5.438-2.922-2.37 0-4.164.974-5.38 2.922-1.214 1.948-1.822 4.726-1.822 8.334v11.09c0 3.63.617 6.42 1.853 8.367 1.235 1.948 3.038 2.922 5.41 2.922 2.35 0 4.153-.974 5.408-2.922 1.255-1.948 1.882-4.737 1.882-8.367v-11.09zM79.51 280.9v16.203h-8.248V250.62h14.313c4.263 0 7.645 1.41 10.146 4.232 2.5 2.822 3.75 6.47 3.75 10.94 0 4.472-1.25 8.107-3.75 10.907-2.5 2.8-5.88 4.2-10.14 4.2h-6.07zm0-7.04h6.066c1.833 0 3.232-.768 4.2-2.307.965-1.538 1.448-3.437 1.448-5.694 0-2.31-.483-4.24-1.45-5.82-.965-1.57-2.365-2.36-4.198-2.36H79.51v16.17zm41.346 13.216h-10.668l-2.42 10.027h-8.636l12.132-46.484h8.577l12.08 46.48h-8.63l-2.42-10.03zm-8.965-7.14h7.24l-3.52-14.642h-.18l-3.52 14.643zm55.32-29.316v46.483h-8.22V257.69h-8.72l.09 13.88c.04 9.054-1.15 15.572-3.57 19.557s-6.01 5.977-10.77 5.977h-1.04v-7.04H136c2.45 0 4.094-1.305 4.93-3.917.838-2.612 1.236-7.47 1.196-14.576l-.06-20.95h25.164zm36.75 0v46.483h-8.22V257.69h-8.72l.09 13.88c.04 9.054-1.15 15.572-3.57 19.557s-6.01 5.977-10.77 5.977h-1.04v-7.04h1.02c2.45 0 4.1-1.305 4.93-3.917.84-2.612 1.24-7.47 1.2-14.576l-.06-20.95h25.17zm39.6 34.43h.18l8.01-34.432h10.75v46.484h-8.16v-29.45l-.18-.034-7.77 29.484h-5.49l-7.68-29.22-.18.034v29.186h-8.19v-46.484h10.73l7.98 34.432zm47.05-8.467h-13.06v13.48h15.63v7.04H269.3v-46.485h23.816v7.072h-15.57v11.854h13.06v7.04zm43.08 25.965h-8.21v-5.445h-20.62v5.445h-8.25v-12.484h2.18c2.32 0 3.89-1.494 4.74-4.482.85-2.988 1.61-8.422 2.29-16.303l1.83-18.66h22.41v39.44h3.65v12.48zm-19.63-33.27c-.45 4.716-1.08 8.794-1.86 12.236-.79 3.442-1.76 6.292-2.91 8.55h12.52V257.69h-6.61l-1.13 11.59zm45.43-18.658h8.25v46.483h-8.25v-29.318l-.18-.066-13.53 29.38h-8.25v-46.48h8.25v29.31l.18.06 13.54-29.39zm34.07 36.456h-10.67l-2.42 10.027h-8.63l12.14-46.484h8.58l12.07 46.48H396l-2.42-10.03zm-8.96-7.14h7.24l-3.53-14.642h-.17l-3.52 14.643zm-353.66 60.71v-23.243h6.11c2.23 0 3.96.53 5.2 1.594s1.87 2.646 1.87 4.748c0 1.096-.22 2.07-.67 2.922-.44.853-1.12 1.494-2.01 1.926 1.2.277 2.08.9 2.66 1.868.58.97.86 2.12.86 3.43 0 2.23-.59 3.91-1.78 5.05-1.18 1.14-2.87 1.71-5.06 1.71h-7.16zm4.13-13.415h2.2c.89-.02 1.57-.29 2.03-.81.47-.52.7-1.28.7-2.27 0-1.09-.24-1.9-.74-2.42-.49-.52-1.22-.78-2.2-.78h-1.99v6.29zm0 3.13v6.78h3.03c.91 0 1.59-.27 2.05-.81.46-.54.69-1.35.69-2.44 0-1.1-.21-1.96-.63-2.56-.41-.6-1.07-.92-1.97-.95h-3.17zm23.45.03h-6.53v6.74h7.81v3.52H47.83v-23.24h11.907v3.54h-7.785v5.93h6.53v3.52zm16.42-9.45H66.9v4.68h2.82c2.143 0 3.856.7 5.14 2.1 1.286 1.4 1.93 3.2 1.93 5.4 0 2.22-.644 4.03-1.93 5.43-1.284 1.4-2.997 2.1-5.14 2.1h-6.95V317.4H74.9v3.536zm-8.04 8.2v7.99h2.82c.93 0 1.65-.39 2.18-1.17s.78-1.74.78-2.88c0-1.08-.26-2.01-.79-2.78s-1.25-1.15-2.17-1.15H66.9zm16.4 11.51h-4.1v-4.03h4.08v4.04zm20.17-6.02h.09l4.01-17.21h5.38v23.24h-4.08v-14.73l-.09-.01-3.88 14.74h-2.75l-3.84-14.61-.09.02v14.59h-4.1v-23.24h5.37l3.99 17.22zm28.23-2.82c0 2.82-.71 5.06-2.12 6.71-1.41 1.65-3.29 2.48-5.63 2.48s-4.22-.82-5.64-2.47-2.13-3.88-2.13-6.7v-5.52c0-2.81.71-5.05 2.12-6.71 1.41-1.67 3.29-2.5 5.63-2.5s4.23.83 5.65 2.5c1.42 1.66 2.14 3.9 2.14 6.71v5.51zm-4.11-5.54c0-1.8-.32-3.19-.95-4.16-.63-.97-1.54-1.46-2.71-1.46-1.18 0-2.08.49-2.69 1.46-.61.98-.91 2.37-.91 4.17v5.55c0 1.82.31 3.21.93 4.19.62.98 1.52 1.46 2.71 1.46 1.18 0 2.08-.48 2.71-1.46.63-.97.94-2.37.94-4.18v-5.54zm19.55-5.31h-8.04v4.68h2.83c2.15 0 3.86.7 5.14 2.1 1.29 1.4 1.93 3.2 1.93 5.4 0 2.23-.64 4.04-1.92 5.44-1.28 1.4-3 2.1-5.14 2.1h-6.95v-23.25h12.16v3.54zm-8.04 8.2v7.99h2.83c.93 0 1.65-.39 2.18-1.17s.79-1.74.79-2.88c0-1.08-.26-2.01-.78-2.78s-1.24-1.15-2.17-1.15h-2.83zm21.88 6.49h-5.34l-1.21 5.02h-4.32l6.07-23.24h4.29l6.04 23.25h-4.32l-1.21-5.01zm-4.48-3.56h3.62l-1.76-7.32h-.09l-1.77 7.32zm23.16-14.66h4.13v23.25h-4.12V326l-.09-.034-6.76 14.69h-4.13V317.41h4.12v14.66l.09.032 6.77-14.695zm1.17-7.02l.03.1c.04 1.35-.36 2.46-1.2 3.31-.84.86-1.97 1.29-3.4 1.29-1.44 0-2.58-.43-3.43-1.28-.84-.85-1.24-1.96-1.19-3.32l.03-.1h3c0 .58.13 1.05.39 1.42.26.37.66.56 1.2.56.52 0 .91-.18 1.17-.55.26-.37.39-.84.39-1.42h3.02zm21.57 7.03v23.24h-4.11v-19.71h-4.36l.05 6.94c.02 4.53-.57 7.79-1.78 9.78-1.21 2-3 2.99-5.38 2.99h-.53v-3.52h.51c1.23 0 2.05-.65 2.47-1.96.42-1.3.62-3.73.6-7.29l-.03-10.47h12.58zm7.81 23.24h-4.08v-4.03h4.08v4.04zm20.17-6.02h.09l4.01-17.21h5.38v23.24h-4.08v-14.73l-.09-.01-3.88 14.75H229l-3.84-14.61-.09.02v14.59h-4.092v-23.25h5.364l3.99 17.22zm22.63 1.01h-5.33l-1.21 5.02h-4.32l6.07-23.24h4.29l6.04 23.25h-4.32l-1.21-5.02zm-4.48-3.56h3.62l-1.76-7.32h-.09l-1.76 7.32zm16.37.48v8.1h-4.12v-23.25h7.16c2.13 0 3.82.71 5.07 2.12s1.88 3.24 1.88 5.47c0 2.24-.62 4.06-1.87 5.46-1.25 1.4-2.94 2.1-5.07 2.1h-3.04zm0-3.52h3.04c.92 0 1.62-.38 2.1-1.15.49-.77.73-1.71.73-2.84 0-1.15-.24-2.12-.72-2.9-.482-.79-1.182-1.18-2.1-1.18h-3.03v8.09zm18.14 1.93h-1.37v9.68h-4.13v-23.24h4.13V327h1.1l4.16-9.58h5.12l-5.83 10.607 6.28 12.637h-5.26l-4.21-9.68zm22.38-.58h-6.53v6.74h7.82v3.52h-11.94v-23.24h11.91v3.54h-7.78v5.93h6.53v3.52zm17.43-9.44h-5.04v19.71h-4.12v-19.71h-4.91v-3.54h14.08v3.54zm13.29-3.53h4.13v23.24h-4.12V326l-.09-.03-6.77 14.69h-4.12v-23.24h4.13v14.66l.09.03 6.768-14.69zm22.9 23.225h-4.13v-9.68h-6.87v9.68h-4.13v-23.24h4.13v10.044h6.87v-10.05h4.1v23.242zm15.86-19.703h-8.04v19.7h-4.13V317.4h12.16v3.537z" fill="#010101"/>
</svg>
