<?xml version="1.0" encoding="utf-8"?>
<!-- Generator: Adobe Illustrator 16.0.0, SVG Export Plug-In . SVG Version: 6.00 Build 0)  -->
<!DOCTYPE svg PUBLIC "-//W3C//DTD SVG 1.1//EN" "http://www.w3.org/Graphics/SVG/1.1/DTD/svg11.dtd">
<svg version="1.1" id="Слой_1" xmlns="http://www.w3.org/2000/svg" xmlns:xlink="http://www.w3.org/1999/xlink" x="0px" y="0px"
	 width="408px" height="340.645px" viewBox="0 0 408 340.645" enable-background="new 0 0 408 340.645" xml:space="preserve">
<g>
	<polygon fill="#FFFFFF" points="235.419,11.493 243.463,22.985 212.435,22.985 212.435,0 243.463,0 	"/>
	<path fill="#FFFFFF" d="M243.463,105.731h-12.641V66.657h12.641V105.731z M226.225,105.731h-12.642V66.657h12.642V105.731z
		 M211.285,132.164h-4.597v-17.239h4.597V132.164z M200.942,132.164h-4.597v-17.239h4.597V132.164z M196.345,66.657h11.493v39.074
		h-11.493V66.657z M191.748,132.164h-4.597v-17.239h4.597V132.164z M182.554,132.164h-4.597v-17.239h4.597V132.164z M177.957,66.657
		h12.642v39.074h-12.642V66.657z M208.987,41.373v20.686h-27.582C182.554,56.313,189.449,42.522,208.987,41.373 M173.36,132.164
		h-4.597v-17.239h4.597V132.164z M164.166,132.164h-4.597v-17.239h4.597V132.164z M272.196,111.477c0-2.298-2.299-4.597-4.598-4.597
		H249.21V63.209v-1.15l0,0c0,0-1.149-6.895-6.896-13.791c-4.598-6.896-13.791-12.642-28.731-13.791l0,0V0h-4.597v34.478
		c-13.791,1.149-22.985,6.896-27.582,13.791c-5.746,6.896-6.896,13.791-6.896,13.791l0,0v1.15v42.522h-17.238
		c-2.298,0-4.597,2.298-4.597,4.597v24.134c0,2.299,2.299,4.597,4.597,4.597h16.089L163.017,231h9.194l10.343-91.94h28.731v21.836
		h-10.343v16.089h10.343v17.239h-10.343v16.09h10.343v19.537h50.567l-11.492-91.94h16.09c2.299,0,4.596-2.299,4.596-4.597
		L272.196,111.477L272.196,111.477z"/>
</g>
<g>
	<path fill="#FFFFFF" d="M14.224,277.746h-2.749v19.357H3.228v-46.484h8.248v19.158h2.211l8.337-19.158h10.25l-11.654,21.217
		l12.551,25.268H22.651L14.224,277.746z"/>
	<path fill="#FFFFFF" d="M65.225,279.406c0,5.645-1.415,10.116-4.243,13.414c-2.829,3.298-6.584,4.947-11.266,4.947
		s-8.442-1.649-11.281-4.947c-2.839-3.298-4.258-7.77-4.258-13.414v-11.023c0-5.622,1.409-10.099,4.229-13.431
		c2.819-3.331,6.569-4.997,11.251-4.997c4.681,0,8.447,1.666,11.296,4.997c2.849,3.332,4.273,7.809,4.273,13.431V279.406z
		 M57.007,268.316c0-3.608-0.638-6.386-1.913-8.334c-1.275-1.948-3.088-2.922-5.438-2.922c-2.371,0-4.164,0.974-5.379,2.922
		c-1.215,1.948-1.823,4.726-1.823,8.334v11.09c0,3.63,0.617,6.419,1.853,8.367c1.235,1.948,3.038,2.922,5.409,2.922
		c2.351,0,4.154-0.974,5.409-2.922c1.255-1.948,1.882-4.737,1.882-8.367V268.316z"/>
	<path fill="#FFFFFF" d="M79.51,280.9v16.203h-8.248v-46.484h14.313c4.263,0,7.645,1.411,10.146,4.233
		c2.5,2.822,3.75,6.469,3.75,10.94c0,4.472-1.25,8.107-3.75,10.907c-2.5,2.8-5.882,4.2-10.146,4.2H79.51z M79.51,273.861h6.066
		c1.833,0,3.232-0.769,4.199-2.308c0.966-1.538,1.449-3.437,1.449-5.694c0-2.302-0.483-4.239-1.449-5.811
		c-0.966-1.571-2.366-2.357-4.199-2.357H79.51V273.861z"/>
	<path fill="#FFFFFF" d="M120.856,287.076h-10.668l-2.42,10.027h-8.636l12.132-46.484h8.577l12.073,46.484h-8.636L120.856,287.076z
		 M111.891,279.937h7.231l-3.526-14.643h-0.179L111.891,279.937z"/>
	<path fill="#FFFFFF" d="M167.207,250.619v46.484h-8.218v-39.412h-8.726l0.089,13.879c0.04,9.054-1.15,15.572-3.571,19.557
		s-6.012,5.977-10.773,5.977h-1.046v-7.039h1.016c2.451,0,4.094-1.306,4.931-3.918c0.837-2.612,1.235-7.471,1.195-14.576
		l-0.06-20.951H167.207z"/>
	<path fill="#FFFFFF" d="M203.955,250.619v46.484h-8.218v-39.412h-8.726l0.089,13.879c0.04,9.054-1.15,15.572-3.571,19.557
		s-6.012,5.977-10.773,5.977h-1.046v-7.039h1.016c2.451,0,4.094-1.306,4.931-3.918c0.837-2.612,1.235-7.471,1.195-14.576
		l-0.06-20.951H203.955z"/>
	<path fill="#FFFFFF" d="M243.549,285.05h0.179l8.009-34.432h10.758v46.484h-8.158v-29.451l-0.179-0.033l-7.77,29.484h-5.499
		l-7.68-29.219l-0.18,0.033v29.186h-8.188v-46.484h10.728L243.549,285.05z"/>
	<path fill="#FFFFFF" d="M290.594,276.583h-13.059v13.48h15.628v7.039h-23.876v-46.484h23.816v7.072h-15.569v11.854h13.059V276.583z
		"/>
	<path fill="#FFFFFF" d="M333.676,302.548h-8.217v-5.445H304.84v5.445h-8.248v-12.484h2.181c2.311,0,3.889-1.494,4.737-4.482
		c0.846-2.988,1.608-8.422,2.285-16.303l1.824-18.66h22.412v39.445h3.645V302.548z M314.043,269.279
		c-0.458,4.715-1.08,8.793-1.867,12.235c-0.787,3.442-1.759,6.292-2.914,8.55h12.521v-32.373h-6.604L314.043,269.279z"/>
	<path fill="#FFFFFF" d="M359.472,250.619h8.247v46.484h-8.247v-29.318l-0.179-0.066l-13.537,29.385h-8.248v-46.484h8.248v29.318
		l0.179,0.066L359.472,250.619z"/>
	<path fill="#FFFFFF" d="M393.541,287.076h-10.668l-2.42,10.027h-8.637l12.133-46.484h8.576l12.072,46.484h-8.636L393.541,287.076z
		 M384.576,279.937h7.232l-3.527-14.643h-0.179L384.576,279.937z"/>
</g>
<g>
	<path fill="#FFFFFF" d="M30.914,340.645v-23.242h6.111c2.221,0,3.955,0.531,5.2,1.594s1.868,2.646,1.868,4.748
		c0,1.096-0.224,2.07-0.672,2.922c-0.448,0.853-1.121,1.494-2.017,1.926c1.195,0.277,2.079,0.899,2.652,1.868
		c0.573,0.969,0.859,2.111,0.859,3.428c0,2.225-0.593,3.907-1.778,5.047c-1.186,1.14-2.874,1.71-5.065,1.71H30.914z M35.037,327.231
		h2.197c0.886-0.022,1.563-0.293,2.032-0.813c0.468-0.52,0.702-1.278,0.702-2.274c0-1.096-0.247-1.903-0.739-2.424
		c-0.493-0.52-1.228-0.78-2.204-0.78h-1.987V327.231z M35.037,330.352v6.773h3.033c0.906,0,1.589-0.271,2.047-0.813
		c0.458-0.542,0.688-1.355,0.688-2.44c0-1.106-0.209-1.961-0.627-2.565c-0.418-0.603-1.076-0.921-1.972-0.955h-0.149H35.037z"/>
	<path fill="#FFFFFF" d="M58.482,330.385h-6.53v6.74h7.814v3.52H47.829v-23.242h11.908v3.536h-7.785v5.927h6.53V330.385z"/>
	<path fill="#FFFFFF" d="M74.899,320.939h-8.039v4.682h2.824c2.142,0,3.855,0.697,5.14,2.092c1.285,1.395,1.928,3.193,1.928,5.396
		c0,2.225-0.643,4.037-1.928,5.437c-1.285,1.4-2.998,2.1-5.14,2.1h-6.948v-23.242h12.162V320.939z M66.861,329.14v7.985h2.824
		c0.926,0,1.651-0.39,2.174-1.17s0.785-1.74,0.785-2.88c0-1.084-0.262-2.011-0.785-2.781c-0.523-0.769-1.248-1.154-2.174-1.154
		H66.861z"/>
	<path fill="#FFFFFF" d="M83.261,340.645h-4.079v-4.034h4.079V340.645z"/>
	<path fill="#FFFFFF" d="M103.431,334.619h0.09l4.004-17.216h5.379v23.242h-4.079v-14.726l-0.09-0.017l-3.885,14.742h-2.749
		l-3.84-14.609l-0.09,0.017v14.593h-4.094v-23.242h5.364L103.431,334.619z"/>
	<path fill="#FFFFFF" d="M131.657,331.796c0,2.822-0.708,5.058-2.122,6.707c-1.415,1.649-3.292,2.474-5.633,2.474
		s-4.221-0.824-5.64-2.474c-1.419-1.649-2.129-3.885-2.129-6.707v-5.512c0-2.811,0.705-5.049,2.114-6.715
		c1.41-1.666,3.285-2.499,5.625-2.499s4.223,0.833,5.648,2.499c1.424,1.666,2.137,3.904,2.137,6.715V331.796z M127.548,326.251
		c0-1.804-0.319-3.193-0.957-4.167c-0.638-0.974-1.544-1.461-2.719-1.461c-1.186,0-2.082,0.487-2.689,1.461
		c-0.608,0.974-0.912,2.363-0.912,4.167v5.545c0,1.815,0.309,3.21,0.927,4.184c0.617,0.974,1.519,1.461,2.704,1.461
		c1.175,0,2.077-0.487,2.705-1.461c0.627-0.974,0.941-2.368,0.941-4.184V326.251z"/>
	<path fill="#FFFFFF" d="M147.098,320.939h-8.039v4.682h2.824c2.142,0,3.855,0.697,5.14,2.092c1.285,1.395,1.928,3.193,1.928,5.396
		c0,2.225-0.643,4.037-1.928,5.437c-1.285,1.4-2.998,2.1-5.14,2.1h-6.948v-23.242h12.162V320.939z M139.059,329.14v7.985h2.824
		c0.926,0,1.651-0.39,2.174-1.17s0.785-1.74,0.785-2.88c0-1.084-0.262-2.011-0.785-2.781c-0.523-0.769-1.248-1.154-2.174-1.154
		H139.059z"/>
	<path fill="#FFFFFF" d="M160.929,335.631h-5.334l-1.21,5.014h-4.318l6.066-23.242h4.288l6.037,23.242h-4.318L160.929,335.631z
		 M156.446,332.062h3.616l-1.763-7.321h-0.089L156.446,332.062z"/>
	<path fill="#FFFFFF" d="M179.604,317.403h4.124v23.242h-4.124v-14.659l-0.089-0.033l-6.769,14.692h-4.124v-23.242h4.124v14.659
		l0.09,0.033L179.604,317.403z M180.77,310.38l0.03,0.1c0.04,1.351-0.361,2.455-1.203,3.312c-0.842,0.858-1.975,1.287-3.399,1.287
		c-1.445,0-2.587-0.426-3.429-1.278c-0.842-0.852-1.238-1.959-1.188-3.32l0.03-0.1h3.003c0,0.576,0.129,1.049,0.389,1.419
		c0.259,0.371,0.657,0.556,1.195,0.556c0.518,0,0.906-0.185,1.165-0.556c0.259-0.371,0.389-0.844,0.389-1.419H180.77z"/>
	<path fill="#FFFFFF" d="M202.343,317.403v23.242h-4.109v-19.706h-4.363l0.045,6.939c0.02,4.527-0.575,7.786-1.786,9.778
		c-1.21,1.992-3.005,2.988-5.386,2.988h-0.523v-3.52h0.508c1.225,0,2.047-0.653,2.465-1.959c0.418-1.306,0.617-3.735,0.598-7.288
		l-0.03-10.476H202.343z"/>
	<path fill="#FFFFFF" d="M210.147,340.645h-4.079v-4.034h4.079V340.645z"/>
	<path fill="#FFFFFF" d="M230.317,334.619h0.09l4.004-17.216h5.379v23.242h-4.079v-14.726l-0.09-0.017l-3.885,14.742h-2.749
		l-3.84-14.609l-0.09,0.017v14.593h-4.094v-23.242h5.364L230.317,334.619z"/>
	<path fill="#FFFFFF" d="M252.947,335.631h-5.334l-1.21,5.014h-4.318l6.066-23.242h4.288l6.037,23.242h-4.318L252.947,335.631z
		 M248.465,332.062h3.616l-1.763-7.321h-0.089L248.465,332.062z"/>
	<path fill="#FFFFFF" d="M264.835,332.543v8.102h-4.124v-23.242h7.157c2.131,0,3.823,0.706,5.073,2.117s1.875,3.235,1.875,5.47
		c0,2.236-0.625,4.054-1.875,5.454c-1.25,1.4-2.941,2.1-5.073,2.1H264.835z M264.835,329.024h3.033c0.917,0,1.616-0.384,2.099-1.154
		c0.483-0.769,0.725-1.718,0.725-2.847c0-1.151-0.242-2.119-0.725-2.905c-0.483-0.786-1.183-1.179-2.099-1.179h-3.033V329.024z"/>
	<path fill="#FFFFFF" d="M282.991,330.966h-1.375v9.679h-4.124v-23.242h4.124v9.579h1.106l4.168-9.579h5.125l-5.827,10.608
		l6.275,12.634h-5.259L282.991,330.966z"/>
	<path fill="#FFFFFF" d="M305.367,330.385h-6.529v6.74h7.814v3.52h-11.938v-23.242h11.909v3.536h-7.785v5.927h6.529V330.385z"/>
	<path fill="#FFFFFF" d="M322.795,320.939h-5.035v19.706h-4.123v-19.706h-4.916v-3.536h14.074V320.939z"/>
	<path fill="#FFFFFF" d="M336.086,317.403h4.125v23.242h-4.125v-14.659l-0.089-0.033l-6.769,14.692h-4.124v-23.242h4.124v14.659
		l0.09,0.033L336.086,317.403z"/>
	<path fill="#FFFFFF" d="M358.999,340.645h-4.124v-9.679h-6.873v9.679h-4.124v-23.242h4.124v10.044h6.873v-10.044h4.124V340.645z"/>
	<path fill="#FFFFFF" d="M374.858,320.939h-8.038v19.706h-4.124v-23.242h12.162V320.939z"/>
</g>
<g>
</g>
<g>
</g>
<g>
</g>
<g>
</g>
<g>
</g>
<g>
</g>
</svg>
