<svg xmlns="http://www.w3.org/2000/svg" viewBox="0 0 209.9 252.2"><path fill="#E81D53" d="M209.8 143.5c-3.2.1-6.3 1.2-9.4 2.1-4.2 1.4-8.9 2.3-13.2.6.8-2 2-3.9 3.6-5.5 5.2-5.3 13.7-6.3 18.2-12.5-.6-1-1.2-2.4-2.6-2.5-2.5 0-4.3 1.9-6.2 3.3.6-1.7 1.9-3.1 3.1-4.5.7-.7 1-2.2 0-2.7-1.4-1.2-3.3-1-5-.5-.4 2.6-1.3 5.1-2.6 7.4-3.5 6.1-8.5 11.5-14.7 14.8-3.4 1.9-7.7 2.6-11.4.8 4.6-4.4 8.7-9.3 12.8-14.2 5.3-6.1 11-12.6 18.7-15.8.1-.9.7-1.8.5-2.7-.8-1-2.1-1.6-3.2-2.4-4.1 3.6-8.6 7-12.6 10.8.4-5.7 5.2-9.5 7.4-14.5-.6-.5-1.1-1.1-1.8-1.4-1.4-.4-2.3.9-3.4 1.4-1.3-1.3-2.1-3.2-1.9-5.1.3-2.1 1.6-4 3.1-5.5 3.5-3.3 7.9-5.4 12.4-6.8-.1-2.3-2.3-3.2-4.1-4 .8-1.4 1.4-3 1.2-4.7-1-.4-2-1-3.2-.9-1.2.2-2.3 1.2-2.5 2.5 0 1.2.6 2.4.4 3.7-1.9 3.6-6.1 5.3-8.4 8.6-.4-4.6-2.4-8.8-3-13.3 0-1.9.1-3.7.1-5.6 1.7-5.2 5.7-9.4 7.5-14.6.3-1 .7-2.3 0-3.3-.7-.9-2-1.1-3.1-1.1-.7 0-1.9-.2-2 .8-1.7 4.3-3.4 8.6-4.6 13.2-1.7-.2-3.2-1.2-4.1-2.7-2.2-3.8-1.3-8.5-3.2-12.4-1.1-1.9-3.6-1.4-5.4-.9-.4 2.3-.5 4.7.2 7 2.2 8 8.5 14.2 10.6 22.3.5 1.6.4 3.4.3 5.1-3.9-.5-7.5-2.8-10.1-5.8-2.2-2.6-2.5-6.4-4.9-8.9-1.2-1.2-3-.6-4.4 0-.1.3-.4.9-.6 1.2 1.1 1.9 2.9 3.2 4.2 5-.1.2-.4.8-.5 1.1-1 .6-2.1 1.5-3.4 1.2-1.8-.2-3.4-1.3-5.2-1.9-.9-.1-1.7-.1-2.6-.1-.7-1.4-1.5-3-3-3.7-1.7-.6-3 1.4-2.6 2.9.4 1.7.9 3.4.4 5.2.5.2 1.1.4 1.6.6 1-.3 2.1-1 3.2-.9 1.3.7 2.4 1.7 3.9 2 3.1.7 6.3 0 9.5.4 3.1 3.2 7.6 4.4 11.5 6.3 1.1.5 2.3 1.1 2.9 2.3 1.6 3.3 1.7 7.2 3.8 10.3.4 1.1 1.9 1.9 1.5 3.3-1.5 6.8-3.2 13.6-6.4 19.8l-.1.1c-1.6 2.6-3.4 5.1-5.5 7.3-1.6.8-3.3 1.5-4.5 2.9-1.8 2.1-3.1 4.6-4.5 7-2.1 4.1-4.9 8.6-9.6 10.1-.3-1.8-.1-3.7.5-5.4 2.7-7 9.5-11.6 11.3-19.1-.8-.7-1.5-1.6-2.4-2.2-1.4-.1-2.8.9-3.4 2.1-1.1 2.4-.9 5.3-2.8 7.4-3.3-2.6-2.6-7.1-2.9-10.8 0-2-1.1-3.8-2-5.6.5-2.7 1-5.4 1.4-8.1 1.5-.4 3-1.1 4.1-2.3 2.1-2.1 2.8-5.2 3.1-8-.2 0-.5-.1-.7-.2-1.4-.6-3.2-1.7-4.6-.7-1.8 1.3.1 3.9-1.5 5.3-.7 1.1-2.3.4-3.4.2-.3.1-.9.2-1.2.3-.9 3.8-.8 7.8-2.2 11.4-.3 1-.9 1.9-1.1 3 .5 1.3 1.3 2.4 1.8 3.7 2.3 5.4 2.4 11.4 4.4 16.9-1.6 2.7-3.4 5.4-4.5 8.4-.4 1.2 0 2.5 0 3.8.2 3.4-.9 6.8-2.3 9.9-2.4 5.1-5.3 9.8-7.7 14.9-.2-2.1-.1-4.3-.1-6.4.8-4.5 1.8-9 2.6-13.5.6-3.6.9-7.3.1-10.9-.1-1.3-.9-2.7-.2-3.9 1.1-2.3 2.2-4.8 2.1-7.5 0-1.8-.9-3.5-1.7-5 .1-.2.5-.7.6-.9 1.1-1.5.5-3.3.1-5 1.7-.7 2.9-2.4 2.9-4.3.2-1.6-.8-2.9-1.8-4-.4 0-.8.1-1.2.1-.7.8-1.5 1.6-2.2 2.4 0 0-.2-.1-.2-.2-.6-1.5-1.5-2.9-1.6-4.5-.2-3.3 3.2-5.6 3-8.9-.3-1.4-2.1-.9-3.1-.8-2 .2-3.5 2-3.8 4-.8 4.7.5 9.5 0 14.3 1 .8 2.1 1.4 3.1 2.1-.2 1.3-.5 2.7-.3 4.1.1 1.3.6 2.9-.4 3.9-1.6 1.5-4.1 2.3-4.8 4.6.3.9 1.1 1.5 2 1.8.1 0 .5.2.6.2l.4.1c.2 1.9.1 3.9-.1 5.8 0 3.8 1 7.7.7 11.5-2.8-3-4.1-7.1-7-10.1-1.4-1.5-1.4-3.7-1.1-5.6.4-2 .7-3.9.8-6 2.2-1.5 4.8-3.1 5.3-6-1-.9-1.8-2.1-3.1-2.5-2 .3-2.5 2.7-4.1 3.7-.7.5-1-.6-1.2-1.1-.4-1.9-.4-3.9-1-5.8.8-1.3 1.5-2.7 1.9-4.2 1.1-4.1.2-8.4 1.2-12.6 4.5-2.4 7.9-6.5 10.1-11.1.3-.7.7-1.5.9-2.3-1-1-2.3-1.4-3.6-1.9-1.7 2.2-2.4 5.1-4.3 7.3-.6.3-1.2.7-1.8 1-1.5-.2-3.4-1.7-4.7-.2-2 4.3-1.5 9.3-2.7 13.9-2-2.6-2.7-6-1.9-9.2 1.3-5.7 4.4-10.9 5.4-16.8.2-2.3 2.4-3.3 4-4.6 2.5-2.7 2-6.8 2.1-10.3 1.7-1.7 3.4-3.5 4.8-5.6 2.2-3.3 3.5-7.1 4.3-11 5.1-2 9.6-5.7 12.5-10.3 2.4-.7 5.9-1 6.4-4.1-.8-2-3.1-1.6-4.8-1.5 0-1.2-.1-2.5-.1-3.7-.5-.1-1-.3-1.5-.5-.6.2-1.3.4-2 .5-.2 6-4.8 10.6-9.4 13.9-1 .9-2-.2-2.7-.9-.3-2.8.1-5.6.6-8.3 2-.1 3.9-2 3.4-4.1-.3-2.1-.7-4.2-.6-6.3-2.7-.6-4.8 1.5-7.2 2.4-.4 1.9-.7 3.7-.9 5.6-.1 4.5 0 9-.1 13.4-.1 4.9-1.4 9.8-4.1 14-1.6-1.8-3.6-3.8-4-6.3.2-1.3.8-2.5 1-3.8-.1-1.2-1.3-2-1.4-3.2.4-4.6 3.1-8.8 7.1-11.2V43c-.7-1.2-2-2.1-2.4-3.5.2-2 1.1-3.8 2.5-5.2 2.7-2.6 6.2-4.6 7.9-8.1 0-1.3-2.6-2.7-3.5-1.2-1 1.2-1.4 3-3 3.5-1.4-.4-2.5-1.6-3.9-2.2-.3.7-.6 1.4-.6 2.2-.1 2.4-.5 4.8-1 7.1-6.1 3-8.6 10.6-15.2 13 .1-2.2.8-4.4 1.7-6.4v-.1c2.2-4 4.8-8.1 4.9-12.9-1.3-.5-2.7-.3-4 0-1.4 2.3-1.5 5.1-1.6 7.7-2.6 2.2-5 5-5.6 8.5-.4 1.7.2 3.3.4 5-1.6 3.4-3 7.1-4.5 10.6-.9 1.1-1.7 2.3-2.7 3.4-1.3-3.7-.4-7.7-.3-11.6.6-6.8 1.6-13.8 4.8-20 1.1-2.6 4.4-2.8 6-5 1.6-2.2 2.9-4.6 4-7.1 1.3-1.7 2.9-3 4.3-4.6-1.5-.2-3-.1-4.5.4h-.3c-1.6 1.1-3.3 2.2-4.5 3.7-1.8 1.9-2.9 4.3-4.3 6.5-3.1-1.3-4.2-5-4.5-8.1-.2-2.5-.8-5-1.1-7.5.9-1.7 2.2-3.3 2.4-5.3 0-.9-.3-1.8-.5-2.6-1 0-2.5-.6-3.2.5-1.1 2.2-.3 4.9-2 6.9-1-.6-1.9-1.2-2.8-1.9h-1.2c0 .2 0 .6-.1.8 2.2 3.2 3 7.2 3.7 11 .6 3.8 1.9 7.6 4.5 10.6-1.2 3.1-1 7.2-3.9 9.4-1.3.2-1.8-1.2-2.2-2.1-.9-2.9.7-6-.1-9-2.9-.4-3.7 3.2-6.1 3.9-.6-.5-1.1-1.1-1.7-1.8-1.3-1.4-2.6-3-4.2-4.1-.8-1-1.7-2-2.8-2.9v-.1c-.6-.8-1.3-1.6-1.9-2.4-2.2.4-3.6 2.4-4.5 4.2.6.8 1.5 1.6 2.7 1.2.9 0 2.4-.7 2.9.5.8 1.6.6 3.7 2 5.2 1.5 1.8 4.1 1.8 6.1 2.9 1.9 1.2 2.9 3.2 3.8 5.2 1 2.5 2 5.1 3.6 7.3-.2.6-.5 1.1-.6 1.8.1 1.5 1.8 2.7 1.5 4.3-.3 3-1 6-.2 9 .4 2.4 1.6 4.5 2.9 6.5-.4.8-.8 1.6-1 2.5-.3 2.4.9 4.7.6 7.1 0 1-.7 1.9-1.3 2.8-2.9-3.4-3.9-7.9-5.6-12.1-.7-2-1.9-3.9-3-5.8 1.4-3.4.8-7.4-.8-10.7-.7-1.6-1.8-3-2.4-4.6.6-1.4 2-2.5 2.3-4.2-.7-1.2-2.2-1.6-3.3-2.3-1 1.1-1.1 2.5-1.2 3.9-.8.2-1.6.6-2.5.5-1.1-.4-1.9-1.3-2.8-2.1.3-1.1.7-2.1 1-3.3-.8-.2-1.8-.9-2.7-.5-1 .9-1.8 2-2.7 3-1.7-1.5-3.2-4-5.9-3.6-.1 1.5-.1 3.2.9 4.3 3.6 3.5 8.9 4.5 12.7 7.9.9.9 1.8 2 2.1 3.3.1 1.6-.3 3.2-.5 4.8-6.8-3.7-12-9.7-18.8-13.5h-.1c-1.3-.7-2.8-1.3-4.3-1.7-.6 1.3-1.5 2.7-1 4.3.4 1.4 1.8 2.2 3 2.9l.1.1c2.8 1.2 5.8 2.1 8.4 3.8-.6.1-1.3.1-2 .2-.5-.3-1-.6-1.4-1-.3.1-1 .4-1.4.5 0 1.4.3 2.8.7 4.1 2 .4 3.8-.6 5.8-.6.8 1.4 1.8 2.8 3.2 3.7 2.7 2.5 6.7 3.4 9.1 6.4 1.4 1.8 1 4.1.5 6.2.9 1.6 2 3.2 2.4 5.1.4 1.7.4 3.4.4 5.2-2-2-4.7-2.8-7.2-4.1-.3-1.6-.9-3.3-2.5-4.1-1.5-1-3.5 0-4.2 1.5-.1 1.9.5 4.1 2.1 5.4 2.7 2.4 6.4 3.1 9.3 5.3 4 2.9 3.7 8.9 7.6 12 1.8 1.5 4.6 1 6.1 2.9.3 1.1-.3 2.4-.3 3.6-.2 5.7 3.5 10.7 3.3 16.4-.7 0-1.6.2-2.3-.1-1.5-1.1-2.3-3-3.8-4.2-2.5-2-5.7-3.1-8.2-5.1-2.9-2.4-3.4-7.3-7.5-8.3-.8-4.5-2.1-9-4.4-13-2.2-3.9-5.2-7.3-8.5-10.2 1.2-3.2.8-6.8-.7-9.9 1.8-1.6 3.2-4.1 2-6.5-.4 0-1.1-.1-1.5-.1-.7.4-1.5.9-2.3 1.3-.1-1.5.4-3.2-.5-4.5-1.2-.7-2.4.5-3.2 1.2-1.7 1.8-1 4.5-.3 6.6 1 3.3 3.1 6.9 1.7 10.5-3.4-1.4-6.6-3.6-9-6.5-.5-1.5-.5-3.1-1-4.6-1.6-4.9-4.7-9.2-7.2-13.7-.3-.6-.7-1.2-.8-1.9.3-1.1.9-2.2 1.1-3.3.3-2.9-1.1-5.7-.4-8.6.3-1.5 1.4-2.7 2.4-3.8-.9-.6-1.9-1.8-3-1.1-1.3.9-2.1 2.2-3.1 3.4h-1.6c-.8-.5-1.8-.7-2.7-.7-.1.8-.2 1.6-.2 2.4.2 0 .5.1.7.2 1 .7 2 1.4 3 2 .7 2.6.6 5.3-.2 7.9-.4.5-.8 1.1-1.3 1.6-.9 0-1.6-.7-2.4-1.1-2.8-1.5-4.6-3.5-7-3.4-2.5.2-1.8 4.2 0 5 2.4 1.7 5.5 1.6 8 3 3.2 2.1 4.9 5.9 6.5 9.3.6 1.4 1.4 2.8 1.7 4.3-1.8 1.3-4.3 2.1-6.6 1.3-4.7-1.3-8-5.2-11.1-8.8H26c-.5-.8-1-1.7-1.6-2.5-2.4-.1-2.8 2.5-3.9 4.1.6.6 1.3 1.2 2 1.8 1.4 1 3 1.8 4.4 2.8.2.5.5 1.1.7 1.7-.3.5-.6 1.1-.9 1.6-3.6 3-9.1 1.5-12-1.8l-2 2c1.1 2 2.9 3.6 4.4 5.4 2.5-.9 5.1-.5 7.6-.1 2.3.3 4.3-1.1 5.7-2.9 4.5 2 9.6 3.4 14.5 2.2 5.3 4.3 11.8 6.9 17.3 10.9 4 2.8 7.5 7 8 12.1-2.5.4-4.4-1.8-6.9-1.4-3.7-4.3-8.7-7.7-14.4-8.4-2.7-.4-5.5.2-8 1.4.2 1.4 1.2 2.4 2.2 3.3 3.2-1.6 6.7 0 9.9.9 1.2.9 1.6 2.4 2.5 3.6 1 .2 2.2.1 3.2.1.8 1 1.6 2.1 2.4 3.2 2.8.1 5.6.9 8 2.4 4.7 2.8 8.7 6.8 11.8 11.3-5.7-.1-8.5-6.5-13.9-7.5-2.4-.4-4.2 1.4-5.5 3.2.2.7.5 1.4.7 2 1.8 1 3.7 0 5.6 0 2.4 1.2 3.2 4.8 6.3 4.8 2.6.4 5 1.8 7.6 2 1.3.1 2.7-.4 4-.4 1.8.8 3.3 2 5.1 3 4.4 2.8 9 5.8 12.1 10.1 2 2.7 3.2 5.9 3.9 9.2-2.5.3-5-.6-6.8-2.3-2.3-2-4.3-4.3-7.1-5.8-3.8-1.9-8.1-2.8-11.6-5.4-2-1.5-3.2-3.8-5-5.6-1.3-1.4-4.2-1.5-5.2.3-.3 1.5 1 2.6 1.6 3.8-.6.3-1.3.6-2 .9-.9-1.2-1.6-2.6-2.8-3.7-.9-.5-2-.7-3-1.2-4-2-6.3-6.4-10.5-8.1-1.4-.6-3.1-1.2-3.9-2.7-1.7-2.9-1-7.1-4-9.3-1.8-1.7-5.8.5-4.8 3 1 1.8 3.3 2.6 4.2 4.5.3 1.4-1.1 1.3-2.1 1.4-4.5.1-8.6-2.7-13.1-2.1-1.1 1.2-2 2.5-2 4.3 1 .7 1.9 1.6 3.2 1.6 1.3 0 2.6-.4 3.8-.7 3.3 2.7 7.7 1.9 11.6 2.1 3.4.1 7 2.1 8.1 5.5-2.6.4-4.8-1.6-7.4-1.4-1.5.3-1.6 2.1-1.7 3.3 1.4.7 2.8 1.2 4.3 1.8-1 2.1-2.9 3.9-5.4 4-4.5.1-8.4-3.1-13-2.8-1.4 1.1-1 3.1-.5 4.6 2.8 1.2 5.7 0 8.6.1 1.6.9 1.3 3 1.5 4.6 7-1.3 11.7-7.3 18-10.2 1.1.9 2.2 1.8 3.5 2.5 7.6 4.7 17.5 3.8 24.7 9.5-1 .8-1.9 1.8-3.3 2.1-3.1.6-6-.9-9.1-1.2-2.2-.4-4.6-.1-6.8-1.1-2.6-1.6-4-4.6-6.6-6.2-1.1-.7-2.5-.3-3.8-.2-.2.6-.4 1.3-.5 2 .8 1 1.8 2 2.1 3.3-.3 1-1.4 1.4-2.3 1.9-4.2 1.9-9.1.9-13.5 2.3-.9.5-.3 1.8-.5 2.6 2.8 1.2 5.6-.7 8.4-.6l1.5 4.5c.8.1 1.7.7 2.4 0 1.1-.6.7-1.9.3-2.9.6-.2 1-1.3.5-1.8 5.7-2.4 12.3-2.3 17.9.1-1.9 4.1-6.3 6.2-10.3 7.8-.8 2.6-2.5 4.8-4.7 6.3 1.1 1.6 2.5 3.2 4.3 4.1.5.4 1.1 0 1.5-.4 1.3-1 .6-2.8 1-4.2 1.5-1.5 3.7-2.2 5.5-3.4 3.7-2.1 6.5-5.3 9.3-8.4 1 .4 2.1.9 3.2 1.3 1.5-1.4 3.3-2.6 4.9-3.9 1.9.2 3.6 1.4 5.4 1.9 10.2 3.9 20.8 7.1 30.2 12.7.9 4 2.5 7.8 3.3 11.9.5 2.8.1 5.7.2 8.5 0 2.5-1.7 4.5-2 7l.3.1c2.1 2.5 5.5 2.7 8.6 2.7l2.4-2.4c2.3-.8 2.9-3.3 4.2-5.1 1.5-2.2 3.3-4.2 5.1-6.1 1.2.3 2.5.5 3.6 1.2.9.8 1.3 2.1 2.2 2.9 2.5 1.2 5.5.2 8 1.4 2.2 1.1 3.5 3.4 5.7 4.5 1.5.7 4.1.1 3.8-2-.5-2.2-2.9-3.3-4.5-4.7 5.9.6 12 1.8 17.7 0 1.6-.4 3.1-1.5 4.8-1.9 1.6.8 3 2.1 4.7 2.8 3.3 1.4 6.8 2.4 9.8 4.3 2.2-2.4 3.5-5.5 3.7-8.7-2.8-.5-5.6.3-8.4.7-2.3.3-4.4-1-6-2.6 1.3-1.1 2.6-2.5 3.3-4.2 1.4-3.2 1.4-6.8 1.5-10.3-1.2-.3-2.4-.3-3.7-.1-1.2 2.5-1.8 5.3-2.5 8-.5 2-1.8 3.8-3.1 5.5-3.2-.5-6.4.1-9.4 1.1-3.2 1-6.9 1.4-9.9-.2.1-.4.1-.8.2-1.2 1.5-.3 3.6-.1 4.7-1.5 1.3-1.5.4-4-1.2-4.9-.7-.2-1.6 0-2.3.3-4.4 2.3-6.2 8.1-11.2 9.4-1.1-1.3-2.4-2.4-4-3.2-2.5-1.2-5.4-1.5-8-2.3 1.2-4 4.1-7.2 6.9-10.3 3-3.1 6-6.1 9.5-8.6 1.3-.9 2.7-1.9 4.3-2.3 2.6-.5 5.2.5 7.8 0 1.1-.2 1.9-1.1 2.6-2 2.8.2 5.5 1.2 8.4 1.8 5.1 1.1 10.7 2.1 15.8.3 2.6-.9 5.4-2 7.2-4.3 1.1-1.1.7-2.3.7-3.4zM97.3 100.2c-2.3-2.7-5.5-4.8-7-8.2-.7-1.4.2-2.8.9-4.1 1.8 3 4.5 5.4 6 8.6.7 1.2.5 2.5.1 3.7zm23.4-55.1c.3.6.7 1.2 1.1 1.8l-.4 1.5c-.6-.2-1.3-.4-2-.6.4-.9.9-1.8 1.3-2.7zm-1.6 104.6c-8.7-9.6-14.6-21.9-16.2-34.8-.5-1.8.8-3.3 1.9-4.6-.3-1.4-1-2.8-1-4.3.2-1.7 1-3.4 1-5.2 0-4.7-2.4-8.9-4-13.3-.3-.7.3-1.4.5-2.1.6-1.5.6-3.2.9-4.8.1-1.4 1-2.6 1.4-3.9-.7-1.1-1.5-2.2-2-3.5 4-5.6 5.4-12.6 9.6-18.2 1.3-1.8 3-3.3 4.8-4.6 1.8 4.5 1.7 9.5 1.9 14.3.1 1.3.1 2.7 1 3.7 1.8 2.1 3.3 4.8 3.2 7.7 0 1.9-.9 3.6-1.8 5.3-2.5-3.1-4.6-7-8.7-8.2-.7.9-1.7 1.8-2 3.1-.4 1.1.8 1.8 1.5 2.5 1.8 1.9 4.7 3.2 5.4 5.9-.2 1.9-1 3.7-1.1 5.6-1.1-.1-2.3-.3-3.4-.7-2.5 2.9-3.3 6.9-2.9 10.6.5 5.2 2.7 10.4 1.6 15.8.8.9 1.7 1.7 2.6 2.6 1.3 4.8 3.8 9.2 5.3 13.9.7 1.8-.9 3.4-.7 5.2.1 4.1 2.9 8 1.2 12z"/><g fill="#71585A"><path d="M27.1 216h-10l-3 9h-2.8l9.4-27.4h2.9l9.3 27.4H30l-2.9-9zm-9.4-2.3h8.8l-3.3-9.7c-.4-1.2-.8-2.6-1-3.7-.3 1.4-.6 2.4-1 3.7l-3.5 9.7zM35.4 225.1v-26.8c1.8-.2 4.2-.5 7-.5 3.8 0 6.5.7 8.3 2.5 1.4 1.4 2.2 3.2 2.2 5.4 0 2.5-.8 4.6-2.4 6.1-1.8 1.7-4.9 2.5-8.6 2.5-1.4 0-2.8 0-4-.3v11h-2.5zm2.6-13.4c1.2.3 2.7.4 4.3.4 5.2 0 8-2.5 8-6.1 0-4.5-3.9-5.9-7.7-5.9-2.2 0-3.8.1-4.6.3v11.3zM61.7 225.1v-24.6h-9V198h20.7v2.5h-9.1v24.6h-2.6zM85.1 224.8V198h2.5v12.1H89L99.4 198h3.2l-11.2 12.4c5.1.6 7.1 3.3 8.6 7.1 1.1 2.7 1.8 5 3 7.3h-2.8c-1.1-1.8-1.8-4.3-2.7-6.4-1.6-4.2-3.9-6-9-6h-1v12.5h-2.4v-.1zM102.9 211.7c0-8.4 5-14.1 11.6-14.1 6.8 0 11.3 5.7 11.3 13.5 0 9.2-5.3 14.1-11.5 14.1-6.9 0-11.4-5.7-11.4-13.5zm20-.4c0-5.5-2.8-11.3-8.6-11.3s-8.7 5.6-8.7 11.6 3 11.2 8.6 11.2c5.5 0 8.7-5.1 8.7-11.5zM128.5 225.1v-26.8c1.8-.2 4.2-.5 7-.5 3.8 0 6.5.7 8.3 2.5 1.4 1.4 2.2 3.2 2.2 5.4 0 2.5-.8 4.6-2.4 6.1-1.8 1.7-4.9 2.5-8.6 2.5-1.4 0-2.8 0-4-.3v11h-2.5zm2.6-13.4c1.2.3 2.7.4 4.3.4 5.2 0 8-2.5 8-6.1 0-4.5-3.9-5.9-7.7-5.9-2.2 0-3.8.1-4.6.3v11.3zM159.2 216h-10l-3 9h-2.8l9.4-27.4h2.9L165 225h-2.9l-2.9-9zm-9.4-2.3h8.8l-3.3-9.7c-.4-1.2-.8-2.6-1-3.7-.3 1.4-.6 2.4-1 3.7l-3.5 9.7zM167.5 222.8c.7-.1 1.5-.7 2-1.3 2-2 2.2-7.7 2.2-12.3V198h15.7v26.8H185v-24.4h-11v8.6c0 5.5-.2 12.4-3.2 14.8-.7.6-1.8 1.3-2.8 1.4l-.5-2.4zM189.8 222.8c.7-.1 1.5-.7 2-1.3 2-2 2.2-7.7 2.2-12.3V198h15.7v26.8h-2.4v-24.4h-10.9v8.6c0 5.5-.2 12.4-3.2 14.8-.7.6-1.8 1.3-2.8 1.4l-.6-2.4z"/></g><g fill="#A2D5AA"><path d="M16.7 244.7h-9l-2.8 7.4H3.2l8.3-21.4h1.6l8.2 21.4h-1.8l-2.8-7.4zm-8.6-1.3h8.1l-3.2-8.3c-.3-.9-.6-1.9-.8-2.6l-.8 2.6-3.3 8.3zM23 251.9v-20.8h13.5v1.5H24.7V252l-1.7-.1zM51.4 240.1v1.4H39.8v8.9h12.8v1.4H38.1V231H52v1.4H39.8v7.7h11.6zM54.3 230.8H56v9.3h12v-9.3h1.7v21.4H68v-10.6H56v10.6h-1.7v-21.4zM79.3 252.2v-19.7h-7.8v-1.4h17.4v1.4H81v19.7h-1.7zM104.1 233.2c-1.1-.6-2.6-1-4.7-1-5.8 0-9.5 3.9-9.5 9.5 0 5.2 3.4 9.1 9.2 9.1 2 0 3.6-.3 5.1-1.1l.4 1.4c-1.2.6-3.1 1.1-6 1.1-5.9 0-10.5-3.8-10.5-10.6 0-5.6 3.9-10.9 11.2-10.9 2.6 0 4.3.5 5.2 1l-.4 1.5zM113.8 252.2v-19.7H106v-1.4h17.4v1.4h-7.9v19.7h-1.7zM135.6 241.1c1.8.2 5 1.5 5 4.9 0 5.8-6.4 6-10.7 6-1.6 0-3.4-.1-4.8-.2v-20.4c1.6-.3 3.8-.5 6.1-.5 3.8 0 8.4.5 8.4 5.5 0 2-1.7 4-4 4.7zm-3.4-.6c3.9 0 5.7-2 5.7-4 0-3.7-3.4-4.2-6.8-4.2-2.4 0-3.6.1-4.3.3v7.9h5.4zm-5.5 1.3v8.7c1 .2 2.4.2 4 .2 3.3 0 8-.5 8-4.5 0-3.2-3.1-4.4-7.4-4.4h-4.6zM142 241.7c0-6.6 4.2-11 9.7-11 5.5 0 9.4 4.3 9.4 10.5 0 7.2-4.6 11-9.7 11-5.6 0-9.4-4.3-9.4-10.5zm17.4-.4c0-4.4-2.5-9.2-7.8-9.2s-7.8 4.6-7.8 9.5c0 4.7 2.6 9.2 7.8 9.2 4.9 0 7.8-4.2 7.8-9.5zM189.5 252.2H188v-10.5c0-3.5 0-5.9.1-8.4h-.1c-1.1 2.1-2.4 4.3-3.9 6.8l-7.7 12.2h-1.5v-21.4h1.5v10.3c0 3.4 0 5.8-.1 8.5 1.1-2 2.2-3.8 3.8-6.5l7.9-12.4h1.6l-.1 21.4zM199.5 252.2v-19.7h-7.8v-1.4H209v1.4h-7.8v19.7h-1.7z"/></g></svg>